<svg id="Animation" xmlns:xlink="http://www.w3.org/1999/xlink" viewBox="0 0 1342.43 347"><defs><style>.cls-1,.cls-2{isolation:isolate;}.cls-2{fill:#231f20;opacity:0.2;}.cls-3{fill:#fff;}</style></defs><title>rotating-earth</title><image id="image" class="cls-1" width="1231" height="345" transform="translate(113.69)" xlink:href="map.png"/><path id="shadow" class="cls-2" d="M430.53,346.86c2.23.08,4.47.14,6.72.14A172.33,172.33,0,0,0,565.85,60a244.46,244.46,0,0,1,10.26,70.37C576.11,231.5,515,317.32,430.53,346.86Z" transform="translate(-2)"/><g id="mask"><path class="cls-3" d="M267.45,174.66A172.34,172.34,0,0,1,439.79,2.32H2V347H439.79A172.34,172.34,0,0,1,267.45,174.66Z" transform="translate(-2)"/><path class="cls-3" d="M439.79,2.32a172.34,172.34,0,0,1,0,344.68H877.57V2.32Z" transform="translate(-2)"/></g></svg>