<svg id="Layer_1" data-name="Layer 1" xmlns="http://www.w3.org/2000/svg" viewBox="0 0 105.34 116.72"><defs><style>.cls-1{fill:#302f2f;}.cls-2{fill:#f2f2f3;}.cls-3{fill:#b8b8b9;}.cls-4{fill:#1171ba;}.cls-5{fill:none;stroke:#ffca1c;stroke-linecap:round;stroke-miterlimit:10;stroke-width:4px;}.cls-6{fill:#ffca1c;}</style></defs><title>icon-request_a_demo2</title><path class="cls-1" d="M81.74,116.62H7a7.06,7.06,0,0,1-7-7V7A7.06,7.06,0,0,1,7,0h74.7a7.06,7.06,0,0,1,7,7V109.58a7.06,7.06,0,0,1-7,7"/><path class="cls-2" d="M75.92,101.59H12.76a4.71,4.71,0,0,1-4.69-4.7V12.76a4.71,4.71,0,0,1,4.69-4.7H75.92a4.71,4.71,0,0,1,4.7,4.69V96.89a4.72,4.72,0,0,1-4.7,4.7"/><path class="cls-3" d="M47.47,108.1A3.08,3.08,0,1,1,44.39,105a3.08,3.08,0,0,1,3.08,3.08"/><path class="cls-4" d="M78.94,101.75H9.84a2,2,0,0,1-2-2V9.15a2,2,0,0,1,2-2h69.1a2,2,0,0,1,2,2v90.6A2,2,0,0,1,78.94,101.75Z"/><line class="cls-5" x1="47.67" y1="33.21" x2="50.81" y2="22.51"/><line class="cls-5" x1="39.98" y1="32.96" x2="37.35" y2="22.12"/><line class="cls-5" x1="33.2" y1="36.58" x2="25.5" y2="28.52"/><line class="cls-5" x1="29.13" y1="43.12" x2="18.43" y2="39.98"/><line class="cls-5" x1="28.88" y1="50.81" x2="18.05" y2="53.45"/><line class="cls-5" x1="32.51" y1="57.6" x2="24.44" y2="65.3"/><line class="cls-5" x1="39.41" y1="61.33" x2="36.27" y2="72.03"/><line class="cls-5" x1="57.59" y1="51.75" x2="68.29" y2="54.89"/><line class="cls-5" x1="57.84" y1="44.06" x2="68.67" y2="41.42"/><line class="cls-5" x1="54.21" y1="37.27" x2="62.28" y2="29.57"/><path class="cls-6" d="M62.84,98.11c3.35,3.91,12.54,7.34,17.67,8.91l7.89,9.7,16.94-14.43-6-8.52a70.12,70.12,0,0,0-1.89-14.52s-.69-2.71-4.59-9.77A21.86,21.86,0,0,0,89,64s-5.47-5-8.63,1c0,0-5.85-4.76-9,1.94,0,0-6.37-3.42-8.42,4.29L50.12,52.93s-2.06-3.46-5.35-1.45c-2.75,1.69-.91,5-.91,5L65.67,90.23S51.83,79.42,47.86,83.6c0,0-2.56,2.24,1.58,5.1C52.66,90.93,58.94,93.55,62.84,98.11Z"/></svg>