<svg id="Layer_1" data-name="Layer 1" xmlns="http://www.w3.org/2000/svg" xmlns:xlink="http://www.w3.org/1999/xlink" viewBox="0 0 139.3 116.9"><defs><style>.cls-1,.cls-7{fill:none;}.cls-2{clip-path:url(#clip-path);}.cls-3{fill:#b9b9b9;}.cls-4{fill:#302f2f;}.cls-5{fill:#1171ba;}.cls-6,.cls-7{isolation:isolate;font-size:53.28px;font-family:ArialMT, Arial;}.cls-6{fill:#ffca1e;}.cls-7{stroke:#ffca1e;stroke-linejoin:round;stroke-width:1.5px;}</style><clipPath id="clip-path" transform="translate(0 -0.1)"><rect class="cls-1" width="140" height="117"/></clipPath></defs><title>sales-inquiry</title><g class="cls-2"><path class="cls-3" d="M132.9,74.4a4.53,4.53,0,0,1-1.6-.3l-19.1-8.3A51.84,51.84,0,0,1,97,68.1c-23.3,0-42.3-15.3-42.3-34S73.7.1,97,.1s42.3,15.3,42.3,34a29.86,29.86,0,0,1-9.4,21.4l6.6,13.1a4,4,0,0,1-.7,4.6,3.85,3.85,0,0,1-2.9,1.2Z" transform="translate(0 -0.1)"/><path class="cls-4" d="M113.2,25H79.4c-1.6,0-2.9-1-2.9-2.2h0c0-1.2,1.3-2.2,2.9-2.2h33.8c1.6,0,2.9,1,2.9,2.2h0C116.1,24,114.8,25,113.2,25Z" transform="translate(0 -0.1)"/><path class="cls-4" d="M113.9,35.2H78.8A2.22,2.22,0,0,1,76.6,33h0a2.22,2.22,0,0,1,2.2-2.2h35.1a2.22,2.22,0,0,1,2.2,2.2h0A2.22,2.22,0,0,1,113.9,35.2Z" transform="translate(0 -0.1)"/><path class="cls-4" d="M113.9,45.4H78.8a2.22,2.22,0,0,1-2.2-2.2h0A2.22,2.22,0,0,1,78.8,41h35.1a2.22,2.22,0,0,1,2.2,2.2h0A2.16,2.16,0,0,1,113.9,45.4Z" transform="translate(0 -0.1)"/><path class="cls-5" d="M7.4,117A4.48,4.48,0,0,1,4,115.5a4.56,4.56,0,0,1-.8-5.3L10.9,95C3.8,88,0,79.3,0,70.1,0,48.3,22,30.6,49.1,30.6S98.2,48.3,98.2,70.1s-22,39.5-49.1,39.5A61.63,61.63,0,0,1,31.4,107L9.2,116.6a3.66,3.66,0,0,1-1.8.4Z" transform="translate(0 -0.1)"/><rect class="cls-1" x="37.5" y="49.7" width="33.8" height="46"/><text class="cls-6" transform="translate(37.55 90.22)">?</text><text class="cls-7" transform="translate(37.55 90.22)">?</text></g></svg>