<svg id="animation" xmlns="http://www.w3.org/2000/svg" viewBox="0 0 1627.42 533.31"><defs><style>.cls-1{stroke:#000;stroke-width:8px;}.cls-1,.cls-2{stroke-miterlimit:10;}.cls-2{stroke:#fff;stroke-width:9px;}.cls-3{opacity:0.18;}</style></defs><title>safecoLogo</title><g id="foreground"><g id="line"><path id="line_left" data-name="line left" d="M521.28,275.75a226.33,226.33,0,0,1,1.26-23.66H38.45a21.16,21.16,0,1,0,0,42.32H522.06Q521.29,285.14,521.28,275.75Z" transform="translate(-17.29 -5)"/><path id="line_right" data-name="line right" d="M1623.55,254H1040.63c-.45,0-.89,0-1.34.07a173.87,173.87,0,0,1,.11,42.19c.41,0,.82.07,1.23.07h582.92a21.17,21.17,0,0,0,0-42.33Z" transform="translate(-17.29 -5)"/></g><g id="circle"><path class="cls-1" d="M886,507.48A257,257,0,1,1,681.84,35.83,256.19,256.19,0,0,1,877.2,32.21l17.95,7,2.56-5L879.24,27a262.65,262.65,0,1,0,9,485.67l14.58-6.31-2.68-5Z" transform="translate(-17.29 -5)"/><path class="cls-1" d="M859.24,78.31a207.55,207.55,0,1,0,7.13,383.76l10.23-4.43-2.68-5-9.78,4.24A201.87,201.87,0,1,1,703.73,86.4,201.2,201.2,0,0,1,857.2,83.55l12.84,5,2.56-5Z" transform="translate(-17.29 -5)"/><path class="cls-2" d="M875.55,36.39a252.53,252.53,0,1,0,8.71,467l13.76-6-19.28-35.77-10.57,4.58A212,212,0,1,1,699.69,77.12a211.3,211.3,0,0,1,161.17-3l13.79,5.37L893.1,43.22Z" transform="translate(-17.29 -5)"/></g><g id="Text"><path d="M102.62,196.54l21.62-1.17q.45,9.19,2.48,12.79a13.7,13.7,0,0,0,6.72,5.65c3.12,1.38,7.39,2.07,12.78,2.07q10.5,0,15.78-3.9a12.12,12.12,0,0,0,5.29-10.22,10.74,10.74,0,0,0-3-7.64q-3-3.1-15.74-8.81c-10.73-4.83-14.26-6.33-21.39-11.26a27.73,27.73,0,0,1-8.18-9.87,29.49,29.49,0,0,1-2.9-13.33q0-15.27,10.58-24.4t28.89-9.12q18.48,0,29.57,9.06t12.19,25.55l-21.8.94Q173.82,136,155.37,136c-6.08,0-10.56,1.08-13.41,3.24a10.51,10.51,0,0,0-4.29,8.86,10.12,10.12,0,0,0,4.08,8.36q4,3.29,16,8.74,15.92,7.11,21.16,11a26.42,26.42,0,0,1,8.07,9.66,29.11,29.11,0,0,1,2.81,13q0,16.2-12.05,26.45T146,235.52q-14.91,0-25.44-5.38T106.16,215.8A45.32,45.32,0,0,1,102.62,196.54Z" transform="translate(-17.29 -5)"/><path d="M277,208.31h-43.8l-13.42,25.26H196.41l62.66-114.3h25.17l17.92,114.3H280.6Zm-2.89-19-6.36-46-24.44,46Z" transform="translate(-17.29 -5)"/><path d="M318.83,233.57l23.07-114.3h77.4l-3.87,19.11H360.82l-5.57,27.44h53.47l-3.87,19.1H351.38l-9.87,48.65Z" transform="translate(-17.29 -5)"/><path d="M415.3,233.57l23.09-114.3h82l-3.87,19.11H457.31l-5.27,26h57.29l-3.87,19.1H448.15l-6.31,31h63.62l-3.77,19.1Z" transform="translate(-17.29 -5)"/><path d="M1060.52,439.42h-22.68l23.07-114.3h44.46q12.68,0,19.49,3a24.72,24.72,0,0,1,11,9.55q4.15,6.51,4.15,16a44.66,44.66,0,0,1-5,20.93q-5,9.56-12.34,14.15a46.68,46.68,0,0,1-17.48,6.24q-5.48.86-21.7.86h-14.16Zm12.62-62.53h6.56q17.05,0,23.24-1.95a20.23,20.23,0,0,0,10.2-7.13,19.15,19.15,0,0,0,4-12q0-7.41-5.83-10.22-3.39-1.64-15.61-1.64H1079.8Z" transform="translate(-17.29 -5)"/><path d="M1202.89,356.62h21.54l5.43,41.25q2,15.83,2.3,22.29a180.53,180.53,0,0,1,11.59-26.82L1263,356.62h22.91l-49.48,90.91q-7,12.8-10.77,17.12a23.56,23.56,0,0,1-8.51,6.35,27,27,0,0,1-10.72,2,56.61,56.61,0,0,1-15.46-2.5l1.93-16.68a25.92,25.92,0,0,0,7.54,1.17q9.94,0,16.42-15.6Z" transform="translate(-17.29 -5)"/><path d="M1330.25,439.42l23.13-114.3h22.77l-19.35,95.2h56.47l-3.87,19.1Z" transform="translate(-17.29 -5)"/><path d="M1550.37,439.42h-20.55l1.94-9a37.67,37.67,0,0,1-11.47,8.46,30.35,30.35,0,0,1-12.19,2.42,24.78,24.78,0,0,1-19.54-8.65q-7.59-8.65-7.59-26,0-20.5,11-36.18T1520,354.75q15.85,0,23.82,13.18l9.09-42.81h21.66ZM1502,405.69q0,9,4.22,13.94a13.06,13.06,0,0,0,10.26,4.9,16.41,16.41,0,0,0,9.69-3.39q4.71-3.37,8.22-11.94a46.23,46.23,0,0,0,3.51-17.68q0-9.33-4.53-14.83T1523,371.2q-4.53,0-9.24,3.54t-8.22,12.38A49.84,49.84,0,0,0,1502,405.69Z" transform="translate(-17.29 -5)"/><path d="M1186.31,342.51h-20.67l-1.38.86-2.72,13.25h-11.2l-3.52,16.61h11.07l-7.19,33.29q-3,13.73-3,17.62,0,8.43,5.61,12.79t16.92,4.36a61.84,61.84,0,0,0,11.6-1.09l3.59-16.61q-6.12.56-7.48.55-4.27,0-6-1.35a4.89,4.89,0,0,1-1.75-4.14,96.92,96.92,0,0,1,2-10.84l7.58-34.58h13.89l3.33-16.61h-13.68Z" transform="translate(-17.29 -5)"/><path d="M1469.11,342.51h-20.67l-1.38.86-2.72,13.25h-11.2l-3.51,16.61h11.07l-7.2,33.29q-3,13.73-3,17.62,0,8.43,5.61,12.79t16.93,4.36a61.81,61.81,0,0,0,11.59-1.09l3.6-16.61c-4.09.37-6.58.55-7.49.55-2.85,0-4.85-.45-6-1.35a4.89,4.89,0,0,1-1.75-4.14,98.25,98.25,0,0,1,2-10.84l7.57-34.58h13.89l3.33-16.61h-13.68Z" transform="translate(-17.29 -5)"/></g></g><path id="shadow" class="cls-3" d="M709.51,412A323.18,323.18,0,0,0,800,479.25c-48,.45-97.4-16.07-138.31-50.16-87.47-72.9-103-198.51-34.59-280.55,2.48-3,5-5.83,7.66-8.61C608.39,226.66,634,332.26,709.51,412Z" transform="translate(-17.29 -5)"/><path id="shadow-2" data-name="shadow" class="cls-3" d="M712.4,408.55A314.51,314.51,0,0,0,803,475.64a209.68,209.68,0,0,1-139.24-49.05c-87.47-72.9-101.35-200.44-31-284.86q3.82-4.57,7.87-8.86C612.72,221.46,637.09,328.5,712.4,408.55Z" transform="translate(-17.29 -5)"/></svg>