<svg id="Layer_1" data-name="Layer 1" xmlns="http://www.w3.org/2000/svg" xmlns:xlink="http://www.w3.org/1999/xlink" viewBox="0 0 87 117.1"><defs><style>.cls-1{fill:none;}.cls-2{clip-path:url(#clip-path);}.cls-3{fill:#1171ba;}.cls-4{fill:#b9b9b9;}.cls-5{fill:#302f2f;}.cls-6{fill:#ffca1e;}</style><clipPath id="clip-path"><rect class="cls-1" width="87" height="117"/></clipPath></defs><title>customer-support-icon</title><g class="cls-2"><path class="cls-3" d="M21.7,60.1c-6.6-.2-12.3,3-13.4,9.3L.2,114.1l-.2.4v.3a2.26,2.26,0,0,0,2.3,2.3H84.8a2.31,2.31,0,0,0,2.2-2.3v-.5L80,69.4c-1.1-6.3-7.1-9.5-13.4-9.3h0"/></g><g class="cls-2"><path class="cls-4" d="M70.9,36.7A27.6,27.6,0,1,1,43.3,9.1,27.66,27.66,0,0,1,70.9,36.7Z"/><path class="cls-5" d="M79.8,22l-4.1-2.2a36.16,36.16,0,0,0-64.5,0L7.1,22c-1.9,0-3.4,2.3-3.4,3.7V42.4c0,1.4,1.5,4.9,3.4,4.9h4.5c1.9,0,3.4-1.1,3.4-2.4V25a30.56,30.56,0,0,1,56.9,0V44.9c0,1.4,1.5,2.4,3.4,2.4h.9c0,1.7-.1,3.2-1.2,4.4-2.4,2.6-9,3.9-20.6,4.2v-.1a2.25,2.25,0,0,0-1.9-2.4H41.9A2.17,2.17,0,0,0,40,55.8v2.4a2.25,2.25,0,0,0,1.9,2.4H52.4a2.05,2.05,0,0,0,1.8-2C67,58.4,74,56.8,77,53.6c1.8-1.9,2-4.1,2-6.3h.8c1.9,0,3.4-3.5,3.4-4.9V25.7C83.2,24.4,81.7,22,79.8,22Z"/></g><g class="cls-2"><circle class="cls-6" cx="43.5" cy="78" r="3.4"/></g><g class="cls-2"><circle class="cls-6" cx="43.5" cy="91.5" r="3.4"/></g><g class="cls-2"><circle class="cls-6" cx="43.5" cy="105" r="3.4"/></g></svg>