<svg id="animation" xmlns="http://www.w3.org/2000/svg" viewBox="0 0 1503.97 449.29"><defs><style>.cls-1{opacity:0.18;isolation:isolate;}.cls-2,.cls-4{fill:#fff;}.cls-3{fill:blue;}.cls-4{stroke:#fff;stroke-miterlimit:10;stroke-width:2px;}</style></defs><title>logo1</title><path id="shadow" class="cls-1" d="M596.79,203.11a250.94,250.94,0,0,1,5.52-93A170.5,170.5,0,0,0,728.71,395c3.41,0,6.79-.11,10.15-.31C665.26,365.48,608.17,293.33,596.79,203.11Z"/><path id="mask" class="cls-2" d="M-330.29,0V449h2116V0ZM728.21,395a170.5,170.5,0,1,1,170.5-170.5A170.51,170.51,0,0,1,728.21,395Z"/><g id="foreground"><g id="line"><path id="line_left" data-name="line left" d="M504,224.73a228.09,228.09,0,0,1,1.26-23.66H21.16a21.16,21.16,0,0,0,0,42.32H504.77Q504,234.12,504,224.73Z"/><path id="line_right" data-name="line right" d="M1483.26,203H900.34a8.6,8.6,0,0,0-1.34.07,173.63,173.63,0,0,1,.11,42.19c.41,0,.82.07,1.23.07h582.92a21.17,21.17,0,0,0,0-42.33Z"/></g><g id="circle"><path d="M816,426.34c-110.64,50-240.82.76-290.77-109.88S524.44,75.63,635.08,25.68c2.06-.93,4.15-1.83,6.24-2.7a219.18,219.18,0,0,1,167.1-3.1l15.35,6L826,21.57l-15.8-6.15C694.59-29.68,564.35,27.44,519.25,143s12,245.81,127.59,290.91a224.59,224.59,0,0,0,171-3.17l12.47-5.4L828,421.1Z"/><path d="M793.05,59.27a177.52,177.52,0,1,0,6.11,328.23l8.74-3.79-2.29-4.25-8.37,3.63a172.66,172.66,0,1,1-5.93-319.34l11,4.28,2.19-4.31Z"/><path d="M807,23.41C695.86-19.94,570.62,35,527.27,146.14S538.86,382.52,650,425.87a216,216,0,0,0,164.46-3.07l11.77-5.1-16.52-30.59-9,3.92A181.32,181.32,0,0,1,562.26,296.7c-39.8-91.89,2.44-198.65,94.33-238.45a180.78,180.78,0,0,1,137.85-2.58l11.8,4.6,15.77-31Z"/></g><g id="Text"><path d="M95.33,145.52,117,144.35q.45,9.19,2.48,12.79a13.67,13.67,0,0,0,6.72,5.65c3.12,1.38,7.39,2.07,12.78,2.07q10.5,0,15.78-3.9A12.12,12.12,0,0,0,160,150.74a10.76,10.76,0,0,0-3-7.64q-3-3.1-15.74-8.81C130.53,129.46,127,128,119.87,123a27.82,27.82,0,0,1-8.18-9.87,29.42,29.42,0,0,1-2.9-13.33q0-15.27,10.58-24.4t28.89-9.12q18.48,0,29.57,9.06T190,100.92l-21.8.94Q166.53,85,148.08,85c-6.08,0-10.56,1-13.37,3.2A10.51,10.51,0,0,0,130.42,97a10.11,10.11,0,0,0,4.08,8.36q4,3.28,16,8.74,15.92,7.11,21.16,11a26.39,26.39,0,0,1,8.07,9.66,29.07,29.07,0,0,1,2.81,13q0,16.2-12,26.45T138.71,184.5q-14.91,0-25.44-5.38t-14.4-14.34A45.27,45.27,0,0,1,95.33,145.52Z"/><path d="M269.71,157.29h-43.8l-13.42,25.26H189.12l62.66-114.3H277l17.92,114.3H273.31Zm-2.89-19-6.36-46-24.44,46Z"/><path d="M311.54,182.55l23.07-114.3H412l-3.87,19.11H353.53L348,114.8h53.47l-3.87,19.1H344.09l-9.87,48.65Z"/><path d="M408,182.55,431.1,68.25h82l-3.89,19.11H450l-5.27,26H502l-3.87,19.1H440.86l-6.31,31h63.62l-3.77,19.1Z"/><path d="M921.23,388.4H898.55l23.07-114.3h44.46q12.67,0,19.49,3a24.71,24.71,0,0,1,11,9.55q4.15,6.51,4.15,16a44.67,44.67,0,0,1-5,20.93q-5,9.56-12.34,14.15A46.65,46.65,0,0,1,965.9,344q-5.48.86-21.7.86H930Zm12.62-62.53h6.56q17.05,0,23.24-1.95a20.29,20.29,0,0,0,10.2-7.13,19.19,19.19,0,0,0,4-12q0-7.41-5.83-10.22-3.39-1.63-15.61-1.64h-15.9Z"/><path d="M1063.6,305.6h21.54l5.43,41.25q2,15.82,2.3,22.29a180.28,180.28,0,0,1,11.59-26.82l19.25-36.72h22.91l-49.48,90.91q-7,12.8-10.77,17.12a23.56,23.56,0,0,1-8.51,6.35,27,27,0,0,1-10.72,2,56.34,56.34,0,0,1-15.46-2.5l1.93-16.68a26,26,0,0,0,7.54,1.17q9.94,0,16.42-15.6Z"/><path d="M1191,388.4l23.13-114.3h22.77l-19.35,95.2H1274l-3.87,19.1Z"/><path d="M1411.08,388.4h-20.55l1.94-9a37.63,37.63,0,0,1-11.47,8.46,30.36,30.36,0,0,1-12.19,2.42,24.76,24.76,0,0,1-19.54-8.65q-7.59-8.65-7.59-26,0-20.5,11-36.18t28-15.72q15.86,0,23.82,13.18l9.09-42.81h21.66Zm-48.37-33.73q0,9,4.22,13.94a13.07,13.07,0,0,0,10.26,4.9,16.35,16.35,0,0,0,9.69-3.39q4.71-3.37,8.22-11.94a46.23,46.23,0,0,0,3.51-17.68q0-9.33-4.53-14.83t-10.37-5.49q-4.53,0-9.24,3.54t-8.22,12.38A49.83,49.83,0,0,0,1362.71,354.67Z"/><path d="M1047,291.49h-20.67l-1.38.86-2.72,13.25h-11.2l-3.52,16.61h11.07l-7.19,33.29q-3,13.72-3,17.62,0,8.43,5.61,12.79t16.92,4.36a61.84,61.84,0,0,0,11.6-1.09l3.59-16.61c-4.08.37-6.57.56-7.48.55q-4.28,0-6-1.35a4.9,4.9,0,0,1-1.75-4.14,97,97,0,0,1,2-10.84l7.58-34.58h13.89l3.33-16.61H1044Z"/><path d="M1329.82,291.49h-20.67l-1.38.86-2.72,13.25h-11.2l-3.51,16.61h11.07l-7.2,33.29q-3,13.72-3,17.62,0,8.43,5.61,12.79t16.93,4.36a61.73,61.73,0,0,0,11.59-1.09l3.6-16.61c-4.09.37-6.58.55-7.49.55q-4.28,0-6-1.35a4.9,4.9,0,0,1-1.75-4.14,97,97,0,0,1,2-10.84l7.57-34.58h13.89l3.33-16.61h-13.68Z"/></g></g><circle class="cls-3" cx="728.99" cy="224.43" r="171.55"/><path class="cls-2" d="M676.86,317.82c-.31-5.2,1.23-7,1.4-10.5.14-2.84-.82-2.92-4.5-12.59-1.92-5.05-2.88-7.57-3.33-9.77-.66-3.21-.53-7.15-.24-14.9.35-9.47.81-11.23,1.09-12.19a24.08,24.08,0,0,1,5.58-10.43c2.83-3,5.72-4.26,10.66-6.44,2.85-1.26,3.33-1.22,11.32-4,6.33-2.19,9.53-3.31,11.11-4.22,3.4-1.95,5.71-4.51,10.21-9.54,6.84-7.67,6.38-9,11.32-13.32,4.55-4,5.41-3.23,8-6.44s3.51-6.13,7.33-8.44c2.62-1.58,3.73-1.13,4.06-1,1.25.64.7,2.16,2.38,3.86a8,8,0,0,0,4,2,14.73,14.73,0,0,0,2.1.18c4.32.27,5.16.13,6-.16a4.3,4.3,0,0,0,1.93-1.1c.82-.87,1-2,1.09-4,.22-4.4-.21-4.67.22-6.22a8.85,8.85,0,0,1,2.66-4.22c2-1.69,3-.77,6.44-2.66,1.83-1,1.86-1.44,4.22-2.66a14.1,14.1,0,0,1,3.93-1.52,10.2,10.2,0,0,1,4.06,0c2.6.55,2.85,1.92,5.11,2.89,3.84,1.64,6.83-.72,7.77.66.52.76-.52,3-2.61,7.34-1,2.2-1.58,3.11-1.61,4.65a7.89,7.89,0,0,0,1.2,4.21c1,1.62,1.87,1.88,4.57,4,3.12,2.44,2.53,2.57,5.33,4.66,3,2.22,3.27,1.8,5.11,3.55a9.72,9.72,0,0,0,3.11,2.44,8.53,8.53,0,0,0,3.1.67,5.78,5.78,0,0,0,2.22-.22c1.77-.7,2.23-3.3,2.67-5.33.68-3.16,1.8-6.21,2.66-9.32,1.43-5.14,1.84-4.3,3.56-10,1.63-5.42,1.15-5.86,2.88-10.87,0,0,.38-1.1,2.44-6.67a2.82,2.82,0,0,1,2.45-.22c.75.43.93,1.39,1.11,2.45.59,3.51.88,5.27.88,5.55,0,2.29.75,5.15,2.22,10.87,2,7.75,3.34,7.09,4.89,13.55s.19,7.13,2,12.21c1,2.89,2.53,5.26,5.55,10,3.4,5.35,4.27,5.77,6.44,9.77a53.42,53.42,0,0,1,3.77,8.66,48.79,48.79,0,0,1,2.44,13.76,47.88,47.88,0,0,1-3.77,19.54c-.69,1.64-1.58,3.51-8.66,13.76s-7.62,10.49-14.43,20.21c-6.49,9.25-8,12-12.43,16.65-2.35,2.51-4.6,7.71-9.11,8.44a23.87,23.87,0,0,1-4.88,0c-2.81-.27-3.44-.8-6.22-1.34-4.92-.94-5.47.22-8.88-.88a10.68,10.68,0,0,1-5.55-3.33c-1.38-1.78-1.6-4.17-2-8.88-.37-4.47,0-6.18-1.49-7.83a7.12,7.12,0,0,0-3.39-1.94c-2.76-.9-3.73.08-7.55-.23-2.34-.18-4.66-.37-6.44-2-1.32-1.21-1.16-2.14-2.44-4.22a18.75,18.75,0,0,0-5.11-5.11c-4.39-3-10.94-1-15.1.22-9.83,2.92-19.69,5.75-29.52,8.66-15.21,4.51-19,4.59-22.87,8.44a16.78,16.78,0,0,1-7.33,4.88c-.89.27-3.11.4-7.55.67-4,.24-5.25.2-6.21-.67S677,319.83,676.86,317.82Z"/><path class="cls-4" d="M800.76,343.18c.47-.52,2.74-.48,7.24-.39a9.91,9.91,0,0,1,4.5.78,4.56,4.56,0,0,1,2.54,2.35c.13.4.36,1.35-1,3.91-1.14,2.19-2.61,5-5.87,6.46-1.21.54-2.62,1.16-3.91.58-1-.43-1.52-1.39-2.54-5.47C800.52,346.53,799.93,344.08,800.76,343.18Z"/></svg>