<svg id="Layer_1" data-name="Layer 1" xmlns="http://www.w3.org/2000/svg" viewBox="0 0 599.94 732.54"><defs><style>.cls-1{fill:#c7e0ef;stroke:#81b6d3;stroke-miterlimit:10;}.cls-2{font-size:55.23px;font-family:MyriadPro-Regular, Myriad Pro;}.cls-3{font-size:13.81px;font-family:ArialMT, Arial;}.cls-4{fill:#324a5e;}.cls-5{fill:#f0f0f0;}.cls-6{fill:#d80027;}</style></defs><title>madeinaustralia</title><circle class="cls-1" cx="300.3" cy="374.68" r="299.15"/><text class="cls-2" transform="matrix(0.84, 0.54, -0.54, 0.84, 122.8, 606.29)">M</text><text class="cls-2" transform="translate(163.61 631.37) rotate(24.87)">a</text><text class="cls-2" transform="matrix(0.95, 0.32, -0.32, 0.95, 190.04, 643.61)">d</text><text class="cls-2" transform="translate(222.06 654.21) rotate(12.54)">e</text><text class="cls-2" transform="translate(250.76 660.24) rotate(8.4)"> </text><text class="cls-2" transform="translate(263.38 662.09) rotate(5.79)">i</text><text class="cls-2" transform="matrix(1, 0.02, -0.02, 1, 278.13, 663.87)">n</text><text class="cls-2" transform="translate(310.64 664.06) rotate(-3.43)"> </text><text class="cls-2" transform="translate(324.37 663.62) rotate(-8.31)">A</text><text class="cls-2" transform="matrix(0.97, -0.26, 0.26, 0.97, 359.87, 658.21)">u</text><text class="cls-2" transform="matrix(0.94, -0.35, 0.35, 0.94, 391.34, 649.41)">s</text><text class="cls-2" transform="translate(413.41 640.97) rotate(-24.88)">t</text><text class="cls-2" transform="translate(431.39 632.57) rotate(-28.73)">r</text><text class="cls-2" transform="translate(448.72 623.19) rotate(-33.4)">a</text><text class="cls-2" transform="matrix(0.79, -0.61, 0.61, 0.79, 472.2, 607.34)">l</text><text class="cls-2" transform="translate(483.4 598.68) rotate(-40.35)">i</text><text class="cls-2" transform="matrix(0.71, -0.7, 0.7, 0.71, 494.68, 589.34)">a</text><text class="cls-2" transform="matrix(0.81, -0.59, 0.59, 0.81, 134.7, 187.47)">M</text><text class="cls-2" transform="translate(170.16 162.26) rotate(-28.22)">a</text><text class="cls-2" transform="matrix(0.93, -0.38, 0.38, 0.93, 192.65, 149.94)">d</text><text class="cls-2" transform="matrix(0.96, -0.27, 0.27, 0.96, 220.6, 138.64)">e</text><text class="cls-2" transform="matrix(0.98, -0.2, 0.2, 0.98, 246.63, 131.65)"> </text><text class="cls-2" transform="translate(257.69 129.42) rotate(-8.5)">i</text><text class="cls-2" transform="translate(269.66 127.22) rotate(-3.65)">n</text><text class="cls-2" transform="translate(299.51 125.68) rotate(1.06)"> </text><text class="cls-2" transform="translate(310.47 125.36) rotate(6.09)">A</text><text class="cls-2" transform="translate(342.36 128.77) rotate(12.97)">u</text><text class="cls-2" transform="translate(371.09 135.56) rotate(18.59)">s</text><text class="cls-2" transform="translate(391.15 142.35) rotate(22.95)">t</text><text class="cls-2" transform="matrix(0.89, 0.45, -0.45, 0.89, 407.42, 149.22)">r</text><text class="cls-2" transform="translate(422.69 156.72) rotate(31.82)">a</text><text class="cls-2" transform="translate(444.6 170.6) rotate(36.23)">l</text><text class="cls-2" transform="translate(454.73 178.01) rotate(39.12)">i</text><text class="cls-2" transform="matrix(0.73, 0.69, -0.69, 0.73, 464.4, 185.5)">a</text><text class="cls-3" transform="translate(0 75.53)"> </text><path class="cls-4" d="M541.22,221.54C541.22,355,433,463.28,299.49,463.28S57.87,355.12,57.87,221.54L299.61-20.19C433.07-20.19,541.22,88.08,541.22,221.54Z" transform="translate(0 153.82)"/><path class="cls-5" d="M299.49-20.19Z" transform="translate(0 153.82)"/><path class="cls-5" d="M298.92,221.54h.69v-.69A3.74,3.74,0,0,1,298.92,221.54Z" transform="translate(0 153.82)"/><path class="cls-5" d="M299.49,106V-20.07h0C166-20.07,57.76,88.19,57.76,221.66h126.1v-71l71,71h44l.69-.69V177l-71-71Z" transform="translate(0 153.82)"/><path class="cls-6" d="M180.06,11.34a242.08,242.08,0,0,0-90.78,90.78V221.54h63.05V74.39H299.49v-63Z" transform="translate(0 153.82)"/><path class="cls-6" d="M299.49,191.86,213.66,106H184L299.61,221.66h0C299.49,221.54,299.49,201.06,299.49,191.86Z" transform="translate(0 153.82)"/><polygon class="cls-5" points="203.65 417.48 216.88 445.21 246.79 438.3 233.45 465.92 257.5 485.02 227.47 491.81 227.58 522.52 203.65 503.31 179.6 522.52 179.72 491.81 149.69 485.02 173.85 465.92 160.39 438.3 190.3 445.21 203.65 417.48"/><polygon class="cls-5" points="419.72 469.94 426.4 483.87 441.35 480.41 434.68 494.22 446.65 503.77 431.69 507.11 431.69 522.52 419.72 512.86 407.76 522.52 407.76 507.11 392.8 503.77 404.88 494.22 398.09 480.41 413.05 483.87 419.72 469.94"/><polygon class="cls-5" points="358.05 322.9 364.61 336.71 379.68 333.26 372.9 347.06 384.98 356.61 370.02 360.07 370.02 375.37 358.05 365.82 345.97 375.37 346.09 360.07 331.13 356.61 343.1 347.06 336.42 333.26 351.38 336.71 358.05 322.9"/><polygon class="cls-5" points="419.72 238.8 426.4 252.6 441.35 249.15 434.68 263.07 446.65 272.62 431.69 275.96 431.69 291.38 419.72 281.71 407.76 291.38 407.76 275.96 392.8 272.62 404.77 263.07 398.09 249.15 413.05 252.6 419.72 238.8"/><polygon class="cls-5" points="473.57 301.85 480.24 315.65 495.2 312.2 488.53 326.12 500.61 335.67 485.54 339.01 485.65 354.43 473.57 344.76 461.6 354.43 461.72 339.01 446.65 335.67 458.73 326.12 452.05 312.2 467.01 315.65 473.57 301.85"/><polygon class="cls-5" points="435.14 375.37 440.32 391.48 457.23 391.48 443.54 401.37 448.72 417.48 435.14 407.47 421.45 417.48 426.63 401.37 412.94 391.48 429.85 391.48 435.14 375.37"/><text class="cls-3" transform="translate(0 75.53)"> </text><polygon points="564.23 346.83 568.15 355 577 352.93 572.98 361.1 580.11 366.74 571.25 368.69 571.25 377.67 564.23 372.03 557.22 377.67 557.22 368.69 548.36 366.74 555.49 361.1 551.58 352.93 560.32 355 564.23 346.83"/><polygon points="33.48 346.83 37.39 355 46.14 352.93 42.23 361.1 49.24 366.74 40.5 368.69 40.5 377.67 33.48 372.03 26.35 377.67 26.46 368.69 17.6 366.74 24.74 361.1 20.71 352.93 29.57 355 33.48 346.83"/></svg>